<svg width="90" height="40" viewBox="0 0 90 40" fill="none" xmlns="http://www.w3.org/2000/svg">
<path d="M81.676 24.2322V27.724H87.3264V23.555C87.3264 22.2005 87.1783 20.9519 86.9032 19.8515C86.6492 18.751 86.2048 17.7775 85.5488 16.9733C84.9139 16.1691 84.0674 15.5554 82.9669 15.111C81.9088 14.6666 80.5755 14.4338 78.946 14.4338C78.3957 14.4338 77.8032 14.4973 77.2106 14.6243C76.6392 14.7301 76.1525 14.8359 75.7716 14.9629V5.41846L70.1211 6.32845V34.7924H75.7716V19.6398C76.1313 19.534 76.5123 19.4494 76.9355 19.3647C77.3799 19.2589 77.8667 19.2166 78.3746 19.2166C79.6443 19.2166 80.4909 19.5975 80.9564 20.3594C81.4432 21.1212 81.676 22.4122 81.676 24.2322Z" fill="#FFFDE8"/>
<path d="M87.3258 34.8138L81.6118 34.2987V29.3115H87.3258V34.8138Z" fill="#FDAE40"/>
<path fill-rule="evenodd" clip-rule="evenodd" d="M68.1729 24.6769C66.3741 26.3911 63.9615 27.428 61.2738 27.428C55.7715 27.428 51.3062 22.9627 51.3062 17.4604C51.3062 11.958 55.7715 7.49268 61.2738 7.49268C63.9827 7.49268 66.4375 8.57198 68.2364 10.3285L64.6387 13.9262C63.7499 13.1008 62.5648 12.5929 61.2315 12.5929C58.4803 12.5929 56.2583 14.815 56.2583 17.5662C56.2583 20.3173 58.4803 22.5394 61.2315 22.5394C62.5648 22.5394 63.7499 22.0315 64.6599 21.185L68.1729 24.6769Z" fill="#FDAE40"/>
<path fill-rule="evenodd" clip-rule="evenodd" d="M68.1729 31.9357C66.3741 33.6498 63.9615 34.6868 61.2738 34.6868C55.7715 34.6868 51.3062 30.2215 51.3062 24.7191C51.3062 19.2168 55.7715 14.7515 61.2738 14.7515C63.9827 14.7515 66.4375 15.8308 68.2364 17.5873L64.6599 21.185C63.771 20.3596 62.5648 19.8517 61.2315 19.8517C58.4803 19.8517 56.2583 22.0738 56.2583 24.825C56.2583 27.5761 58.4803 29.7982 61.2315 29.7982C62.5648 29.7982 63.7499 29.2903 64.6599 28.4438L68.1729 31.9357Z" fill="#FF5D46"/>
<path d="M49.3177 29.417C48.7887 29.6286 48.1961 29.7767 47.5401 29.9037C46.9052 30.0095 46.2915 30.0518 45.6777 30.0518C44.408 30.0518 43.5615 29.6921 43.1382 28.9937C42.7361 28.2953 42.5245 27.343 42.5245 26.1579V19.153H49.2966V14.4549H42.5245V8.59277L36.874 9.50277V26.2425C36.874 27.5335 36.9798 28.6974 37.2126 29.7556C37.4666 30.8137 37.8898 31.7237 38.5036 32.4856C39.1173 33.2263 39.9215 33.7977 40.9373 34.2209C41.9531 34.623 43.2229 34.8346 44.7677 34.8346C45.974 34.8346 47.011 34.7288 47.8363 34.5383C48.6617 34.3267 49.4236 34.0939 50.1008 33.8188L49.3177 29.417Z" fill="#FFFDE8"/>
<path d="M25.6792 13.9258C24.4729 13.9258 23.2878 14.1586 22.1238 14.603C20.981 15.0474 19.9864 15.7246 19.0976 16.6135C18.2087 17.5023 17.4892 18.6028 16.939 19.936C16.4099 21.2481 16.1348 22.793 16.1348 24.5495C16.1348 26.0097 16.3464 27.3853 16.7485 28.6339C17.1717 29.9037 17.8278 31.0042 18.6743 31.9353C19.5631 32.8453 20.6636 33.5649 21.9757 34.0939C23.309 34.623 24.875 34.8981 26.6738 34.8981C27.3722 34.8981 28.0917 34.8558 28.7901 34.7923C29.4885 34.7076 30.1445 34.623 30.7583 34.496C31.3931 34.3902 31.9645 34.2632 32.4724 34.1151C32.9803 33.9669 33.3824 33.8188 33.6787 33.6707L32.9169 29.0783C32.282 29.3535 31.4566 29.5862 30.462 29.7979C29.4673 29.9672 28.4727 30.073 27.4357 30.073C25.8273 30.073 24.5364 29.7344 23.5629 29.0572C22.6106 28.38 22.0603 27.4488 21.9334 26.2848H34.7369C34.758 25.9886 34.7792 25.65 34.8215 25.269C34.8427 24.8669 34.8638 24.5072 34.8638 24.1686C34.8638 20.8037 34.0385 18.2642 32.409 16.55C30.7371 14.7935 28.515 13.9258 25.6792 13.9258ZM21.9334 22.4121C22.018 21.9253 22.1238 21.4597 22.272 21.0153C22.4413 20.5286 22.6952 20.1265 22.9915 19.7667C23.2878 19.4069 23.6687 19.1318 24.1343 18.9414C24.5787 18.7086 25.129 18.6028 25.7638 18.6028C26.4199 18.6028 26.9701 18.7086 27.3934 18.9414C27.8378 19.1742 28.2187 19.4493 28.4938 19.809C28.7901 20.1688 29.0017 20.5709 29.1287 21.0153C29.2769 21.4597 29.3615 21.9465 29.4038 22.4121H21.9334Z" fill="#FFFDE8"/>
<path d="M8.47341 11.979C8.60039 11.5346 8.79085 11.1325 9.0448 10.8151C9.31992 10.4764 9.67969 10.2437 10.1453 10.0532C10.632 9.84156 11.2034 9.75691 11.8806 9.75691C12.3885 9.75691 12.9388 9.8204 13.5102 9.94738C14.1239 10.0532 14.6741 10.2225 15.182 10.4341L16.2825 5.92645C15.7957 5.71482 15.1185 5.52435 14.2297 5.31273C13.3409 5.07994 12.3674 4.97412 11.3092 4.97412C8.45225 4.97412 6.29364 5.73598 4.83341 7.23854C3.39434 8.76226 2.6748 10.7939 2.6748 13.3757V27.5125H8.32527V19.132H15.2878V14.4339H8.32527V13.4392C8.32527 12.9313 8.3676 12.4446 8.47341 11.979Z" fill="#FFFDE8"/>
<path d="M2.6748 34.8349L8.32527 34.3058V29.2056H2.6748V34.8349Z" fill="#FF5D46"/>
</svg>
