<svg width="86" height="31" viewBox="0 0 86 31" fill="none" xmlns="http://www.w3.org/2000/svg">
<path d="M79.6755 20.2322V23.724H85.326V19.555C85.326 18.2005 85.1778 16.9519 84.9027 15.8515C84.6487 14.751 84.2043 13.7775 83.5483 12.9733C82.9134 12.1691 82.0669 11.5554 80.9664 11.111C79.9083 10.6666 78.575 10.4338 76.9455 10.4338C76.3953 10.4338 75.8027 10.4973 75.2101 10.6243C74.6387 10.7301 74.152 10.8359 73.7711 10.9629V1.41846L68.1206 2.32845V30.7924H73.7711V15.6398C74.1308 15.534 74.5118 15.4494 74.935 15.3647C75.3794 15.2589 75.8662 15.2166 76.3741 15.2166C77.6439 15.2166 78.4904 15.5975 78.9559 16.3594C79.4427 17.1212 79.6755 18.4122 79.6755 20.2322Z" fill="#FFFDE8"/>
<path d="M85.3253 30.8138L79.6113 30.2987V25.3115H85.3253V30.8138Z" fill="#FDAE40"/>
<path fill-rule="evenodd" clip-rule="evenodd" d="M66.1724 20.6769C64.3736 22.3911 61.961 23.428 59.2733 23.428C53.771 23.428 49.3057 18.9627 49.3057 13.4604C49.3057 7.95803 53.771 3.49268 59.2733 3.49268C61.9822 3.49268 64.4371 4.57198 66.2359 6.32849L62.6382 9.92616C61.7494 9.10081 60.5643 8.59291 59.231 8.59291C56.4799 8.59291 54.2578 10.815 54.2578 13.5662C54.2578 16.3173 56.4799 18.5394 59.231 18.5394C60.5643 18.5394 61.7494 18.0315 62.6594 17.185L66.1724 20.6769Z" fill="#FDAE40"/>
<path fill-rule="evenodd" clip-rule="evenodd" d="M66.1724 27.9357C64.3736 29.6498 61.961 30.6868 59.2733 30.6868C53.771 30.6868 49.3057 26.2215 49.3057 20.7191C49.3057 15.2168 53.771 10.7515 59.2733 10.7515C61.9822 10.7515 64.4371 11.8308 66.2359 13.5873L62.6594 17.185C61.7705 16.3596 60.5643 15.8517 59.231 15.8517C56.4799 15.8517 54.2578 18.0738 54.2578 20.825C54.2578 23.5761 56.4799 25.7982 59.231 25.7982C60.5643 25.7982 61.7494 25.2903 62.6594 24.4438L66.1724 27.9357Z" fill="#FF5D46"/>
<path d="M47.3173 25.417C46.7882 25.6286 46.1956 25.7767 45.5396 25.9037C44.9047 26.0095 44.291 26.0518 43.6773 26.0518C42.4075 26.0518 41.561 25.6921 41.1377 24.9937C40.7356 24.2953 40.524 23.343 40.524 22.1579V15.153H47.2961V10.4549H40.524V4.59277L34.8735 5.50277V22.2425C34.8735 23.5335 34.9793 24.6974 35.2121 25.7556C35.4661 26.8137 35.8893 27.7237 36.5031 28.4856C37.1168 29.2263 37.921 29.7977 38.9368 30.2209C39.9526 30.623 41.2224 30.8346 42.7673 30.8346C43.9735 30.8346 45.0105 30.7288 45.8359 30.5383C46.6612 30.3267 47.4231 30.0939 48.1003 29.8188L47.3173 25.417Z" fill="#FFFDE8"/>
<path d="M23.6787 9.92627C22.4724 9.92627 21.2873 10.1591 20.1233 10.6035C18.9806 11.0479 17.9859 11.7251 17.0971 12.6139C16.2082 13.5028 15.4887 14.6032 14.9385 15.9365C14.4094 17.2486 14.1343 18.7935 14.1343 20.55C14.1343 22.0102 14.3459 23.3858 14.748 24.6344C15.1713 25.9042 15.8273 27.0046 16.6738 27.9358C17.5626 28.8458 18.6631 29.5653 19.9752 30.0944C21.3085 30.6235 22.8745 30.8986 24.6733 30.8986C25.3717 30.8986 26.0913 30.8563 26.7896 30.7928C27.488 30.7081 28.144 30.6235 28.7578 30.4965C29.3926 30.3907 29.964 30.2637 30.472 30.1156C30.9799 29.9674 31.382 29.8193 31.6782 29.6712L30.9164 25.0788C30.2815 25.3539 29.4561 25.5867 28.4615 25.7984C27.4668 25.9677 26.4722 26.0735 25.4352 26.0735C23.8268 26.0735 22.5359 25.7349 21.5624 25.0577C20.6101 24.3805 20.0599 23.4493 19.9329 22.2853H32.7364C32.7575 21.9891 32.7787 21.6505 32.821 21.2695C32.8422 20.8674 32.8633 20.5077 32.8633 20.1691C32.8633 16.8042 32.038 14.2646 30.4085 12.5505C28.7366 10.7939 26.5145 9.92627 23.6787 9.92627ZM19.9329 18.4125C20.0175 17.9258 20.1233 17.4602 20.2715 17.0158C20.4408 16.5291 20.6947 16.127 20.991 15.7672C21.2873 15.4074 21.6682 15.1323 22.1338 14.9419C22.5782 14.7091 23.1285 14.6032 23.7633 14.6032C24.4194 14.6032 24.9696 14.7091 25.3929 14.9419C25.8373 15.1746 26.2182 15.4498 26.4933 15.8095C26.7896 16.1693 27.0013 16.5714 27.1282 17.0158C27.2764 17.4602 27.361 17.947 27.4033 18.4125H19.9329Z" fill="#FFFDE8"/>
<path d="M6.47292 7.97901C6.5999 7.53459 6.79036 7.13249 7.04432 6.81505C7.31943 6.47645 7.6792 6.24366 8.14478 6.05319C8.63153 5.84156 9.20292 5.75691 9.88013 5.75691C10.388 5.75691 10.9383 5.8204 11.5097 5.94738C12.1234 6.05319 12.6736 6.22249 13.1815 6.43412L14.282 1.92645C13.7952 1.71482 13.118 1.52435 12.2292 1.31273C11.3404 1.07994 10.3669 0.974121 9.30873 0.974121C6.45176 0.974121 4.29315 1.73598 2.83292 3.23854C1.39385 4.76226 0.674316 6.79388 0.674316 9.37574V23.5125H6.32478V15.132H13.2873V10.4339H6.32478V9.43924C6.32478 8.93133 6.36711 8.44459 6.47292 7.97901Z" fill="#FFFDE8"/>
<path d="M0.674316 30.8349L6.32478 30.3058V25.2056H0.674316V30.8349Z" fill="#FF5D46"/>
</svg>
